<svg data-v-2cb57da0="" version="1.0" xmlns="http://www.w3.org/2000/svg"
    xmlns:xlink="http://www.w3.org/1999/xlink" width="100%" height="100%"
    viewBox="0 0 340.000000 250.000000" preserveAspectRatio="xMidYMid meet"
    color-interpolation-filters="sRGB" style="margin: auto;">
    <rect data-v-2cb57da0="" x="0" y="0" width="100%" height="100%" fill="none" fill-opacity="1"
        class="background"></rect> <!---->
    <g data-v-2cb57da0="" fill="#333" class="iconlinesvg-g iconlinesvg"
        transform="translate(67.49861145019531,93.24799919128418)">
        <g class="tp-name">
            <g transform="translate(0, 0)">
                <g>
                    <g class="imagesvg">
                        <g>
                            <rect fill="#333" fill-opacity="0" stroke-width="2" x="0" y="0"
                                width="39.53505024000001" height="63.50400000000002"
                                class="image-rect"></rect>
                            <svg x="0" y="0" width="39.53505024000001" height="63.50400000000002"
                                filtersec="colorsb173061094" class="image-svg-svg primary"
                                style="overflow: visible;">
                                <svg xmlns="http://www.w3.org/2000/svg"
                                    viewBox="-0.01169443130493164 0 61.718597412109375 99.13664245605469">
                                    <title>beb8d42d-778c-44b3-a5e9-5759fd4366c1</title>
                                    <g fill-rule="evenodd">
                                        <path
                                            d="M1.35 77.38C-.23 72.46 0 67.38 0 62.32V21.6c0-.78.18-1 1-1 2.76.06 5.51 0 8.27 0a8.25 8.25 0 0 1 8.31 8.07v39.39a12.77 12.77 0 0 0 7 11.89 13.22 13.22 0 0 0 17.94-5.22 13 13 0 0 0 1.06-2.53A12.6 12.6 0 0 0 41.19 60a13 13 0 0 0-11-5h-5c-.53 0-.72-.17-.72-.72V38.1c0-.51.18-.66.68-.66 4.08 0 8.19-.26 12.22.65a30.87 30.87 0 0 1 2.4 59.72 29.92 29.92 0 0 1-14.13.85 30.11 30.11 0 0 1-10.49-3.82A30.72 30.72 0 0 1 2.39 80.15l-.53-1.32c-.21-.47-.31-1-.51-1.45"
                                            fill="#333"></path>
                                        <path
                                            d="M20.38 0a17.11 17.11 0 0 1 9.81 12.51 17.55 17.55 0 0 1-3.4 14.09A17.17 17.17 0 0 1 17 14.08 17.52 17.52 0 0 1 20.26.16zm21.29 17.87A17.12 17.12 0 0 1 56 19.6a17.18 17.18 0 0 1-21.33 11.61 17.52 17.52 0 0 1-4.19-1.88 17.18 17.18 0 0 1 11.19-11.46z"
                                            fill="#87b23f"></path>
                                    </g>
                                </svg>
                            </svg> <!---->
                        </g>
                    </g>
                </g>
            </g>
            <g transform="translate(46, 10.089500000000001)">
                <g data-gra="path-name" fill="#333" transform="scale(1.5800000000000005)"
                    stroke="#333">
                    <path
                        d="M26.05-12.01L26.05-12.01Q26.05-8.32 24.41-5.51Q22.77-2.70 20.00-1.13Q17.23 0.45 13.81 0.45L13.81 0.45Q10.39 0.45 7.63-1.13Q4.86-2.70 3.22-5.51Q1.57-8.32 1.57-12.01L1.57-12.01Q1.57-15.71 3.22-18.52Q4.86-21.33 7.63-22.93Q10.39-24.52 13.81-24.52L13.81-24.52Q17.23-24.52 20.00-22.93Q22.77-21.33 24.41-18.52Q26.05-15.71 26.05-12.01ZM20.65-12.01L20.65-12.01Q20.65-14.31 19.73-16.00Q18.81-17.68 17.26-18.63Q15.71-19.57 13.81-19.57L13.81-19.57Q11.92-19.57 10.37-18.63Q8.82-17.68 7.90-16.00Q6.97-14.31 6.97-12.01L6.97-12.01Q6.97-9.76 7.90-8.08Q8.82-6.39 10.37-5.44Q11.92-4.50 13.81-4.50L13.81-4.50Q15.71-4.50 17.26-5.44Q18.81-6.39 19.73-8.08Q20.65-9.76 20.65-12.01Z"
                        transform="translate(-1.575, 33.3)"></path>
                </g>
            </g>
            <g transform="translate(91, 10.089500000000001)">
                <g data-gra="path-name" fill="#333" transform="scale(1.5800000000000005)"
                    stroke="#333">
                    <path
                        d="M26.05-12.01L26.05-12.01Q26.05-8.32 24.41-5.51Q22.77-2.70 20.00-1.13Q17.23 0.45 13.81 0.45L13.81 0.45Q10.39 0.45 7.63-1.13Q4.86-2.70 3.22-5.51Q1.57-8.32 1.57-12.01L1.57-12.01Q1.57-15.71 3.22-18.52Q4.86-21.33 7.63-22.93Q10.39-24.52 13.81-24.52L13.81-24.52Q17.23-24.52 20.00-22.93Q22.77-21.33 24.41-18.52Q26.05-15.71 26.05-12.01ZM20.65-12.01L20.65-12.01Q20.65-14.31 19.73-16.00Q18.81-17.68 17.26-18.63Q15.71-19.57 13.81-19.57L13.81-19.57Q11.92-19.57 10.37-18.63Q8.82-17.68 7.90-16.00Q6.97-14.31 6.97-12.01L6.97-12.01Q6.97-9.76 7.90-8.08Q8.82-6.39 10.37-5.44Q11.92-4.50 13.81-4.50L13.81-4.50Q15.71-4.50 17.26-5.44Q18.81-6.39 19.73-8.08Q20.65-9.76 20.65-12.01Z"
                        transform="translate(-1.575, 33.3)"></path>
                </g>
            </g>
            <g transform="translate(136, 10.089500000000001)">
                <g data-gra="path-name" fill="#333" transform="scale(1.5800000000000005)"
                    stroke="#333">
                    <path
                        d="M6.08 0L6.08 0Q4.91 0 4.14-0.79Q3.38-1.57 3.38-2.75L3.38-2.75L3.38-30.55Q3.38-31.72 4.14-32.51Q4.91-33.30 6.08-33.30L6.08-33.30Q7.25-33.30 8.01-32.51Q8.78-31.72 8.78-30.55L8.78-30.55L8.78-2.75Q8.78-1.57 8.01-0.79Q7.25 0 6.08 0ZM20.38-24.07L20.38-24.07Q21.42-24.07 22.18-23.22Q22.95-22.36 22.95-21.55L22.95-21.55Q22.95-20.47 21.87-19.53L21.87-19.53L8.32-7.06L8.10-13.28L18.40-23.22Q19.26-24.07 20.38-24.07ZM21.06-0.04L21.06-0.04Q19.89-0.04 19.08-0.94L19.08-0.94L10.75-9.76L14.85-13.54L22.95-4.72Q23.80-3.82 23.80-2.70L23.80-2.70Q23.80-1.53 22.88-0.79Q21.96-0.04 21.06-0.04Z"
                        transform="translate(-3.375, 33.3)"></path>
                </g>
            </g>
            <g transform="translate(175, 10.089500000000001)">
                <g data-gra="path-name" fill="#333" transform="scale(1.5800000000000005)"
                    stroke="#333">
                    <path
                        d="M1.53-3.73L1.53-3.73Q1.08-4.37 1.13-5.35Q1.17-6.34 2.29-7.06L2.29-7.06Q3.01-7.51 3.82-7.45Q4.63-7.38 5.40-6.61L5.40-6.61Q6.71-5.31 8.14-4.59Q9.58-3.87 11.74-3.87L11.74-3.87Q12.42-3.92 13.23-4.07Q14.04-4.23 14.65-4.79Q15.25-5.35 15.25-6.52L15.25-6.52Q15.25-7.51 14.58-8.10Q13.90-8.69 12.80-9.09Q11.70-9.49 10.35-9.86L10.35-9.86Q8.96-10.26 7.49-10.75Q6.03-11.25 4.81-12.04Q3.60-12.82 2.83-14.13Q2.07-15.43 2.07-17.41L2.07-17.41Q2.07-19.66 3.33-21.24Q4.59-22.81 6.59-23.67Q8.59-24.52 10.80-24.52L10.80-24.52Q12.20-24.52 13.72-24.19Q15.25-23.85 16.65-23.11Q18.04-22.36 18.99-21.15L18.99-21.15Q19.48-20.47 19.57-19.53Q19.66-18.59 18.72-17.82L18.72-17.82Q18.04-17.28 17.14-17.35Q16.25-17.41 15.66-17.95L15.66-17.95Q14.89-18.95 13.61-19.53Q12.33-20.11 10.66-20.11L10.66-20.11Q9.99-20.11 9.20-19.96Q8.41-19.80 7.83-19.28Q7.25-18.77 7.25-17.64L7.25-17.64Q7.25-16.61 7.92-16.00Q8.59-15.39 9.74-15.01Q10.89-14.63 12.20-14.26L12.20-14.26Q13.54-13.90 14.94-13.41Q16.34-12.91 17.50-12.11Q18.68-11.29 19.39-10.01Q20.11-8.73 20.11-6.75L20.11-6.75Q20.11-4.46 18.77-2.83Q17.41-1.21 15.39-0.38Q13.37 0.45 11.25 0.45L11.25 0.45Q8.59 0.45 5.94-0.47Q3.28-1.40 1.53-3.73Z"
                        transform="translate(-1.1209090909090909, 33.3)"></path>
                </g>
            </g>
        </g> <!---->
    </g>
    <defs v-gra="od"></defs>
</svg>